####
#
#	OBJ File Generated by LightWave3D
#	LightWave3D OBJ Export v2.3
#
####
o Door_01_01.obj
mtllib Door_01_01.mtl
g default
v -0.25 2 -0
v 0.25 2 -0
v -0.25 0.5 -0
v 0.25 0.5 -0
v -0.25 0.5 -0.05
v 0.25 0.5 -0.05
v 0.25 0.5 -0.1
v -0.25 0.5 -0.1
v -0.25 2 -0.05
v 0.25 2 -0.05
v 0.25 2 -0.1
v -0.25 2 -0.1
v -0.425 0.4 0.075
v -0.375 0.4 0.075
v -0.375 0.4 0.025
v -0.425 0.4 0.025
v -0.425 2.1 0.075
v -0.375 2.1 0.075
v -0.375 2.1 0.025
v -0.425 2.1 0.025
v -0.425 2 0.025
v -0.375 2 0.025
v -0.375 2 -0
v -0.425 2 -0
v -0.425 2.05 0.025
v -0.375 2.05 0.025
v -0.375 2.05 -0
v -0.425 2.05 -0
v -0.425 0.45 0.025
v -0.375 0.45 0.025
v -0.375 0.45 -0
v -0.425 0.45 -0
v -0.425 0.5 0.025
v -0.375 0.5 0.025
v -0.375 0.5 -0
v -0.425 0.5 -0
v -0.6 1 0.025
v -0.6 1.1 0.025
v -0.5 1.1 0.025
v -0.5 1 0.025
v -0.6 1 -0
v -0.6 1.1 -0
v -0.5 1.1 -0
v -0.5 1 -0
v 0.562073 2.3165 -3.14308e-009
v 0.558004 0.129973 -1.11341e-008
v 0.524303 0.173627 -1.22696e-008
v 0.522726 2.27781 -3.60304e-009
v -0.562073 2.3165 1.06417e-008
v -0.522726 2.27781 1.2199e-008
v -0.558004 0.129973 3.28851e-009
v -0.524303 0.173627 3.62388e-009
v -0.562073 2.3165 -0.15
v -0.558004 0.129973 -0.15
v -0.524303 0.173627 -0.15
v -0.522726 2.27781 -0.15
v 0.562073 2.3165 -0.15
v 0.522726 2.27781 -0.15
v 0.558004 0.129973 -0.15
v 0.524303 0.173627 -0.15
v 0.25 2 -0.15
v 0.65 2.4 -0.15
v 0.65 2.4 -0
v -0.25 2 -0.15
v -0.65 2.4 -0.15
v -0.65 2.4 -0
v 0.25 0.5 -0.15
v 0.65 0 -0.15
v 0.65 0 -0
v -0.25 0.5 -0.15
v -0.65 0 -0.15
v -0.65 0 -0
v -0.25 1.65 -0
v 0.25 1.65 -0
v 0.25 1.65 -0.15
v -0.25 1.65 -0.15
v -0.25 1.7 -0
v 0.25 1.7 -0
v 0.25 1.7 -0.15
v -0.25 1.7 -0.15
v -0.25 0.8 -7.45058e-010
v 0.25 0.8 -7.45058e-010
v 0.25 0.8 -0.15
v -0.25 0.8 -0.15
v -0.25 0.85 -7.45058e-010
v 0.25 0.85 -7.45058e-010
v 0.25 0.85 -0.15
v -0.25 0.85 -0.15
v -0.25 1.225 -7.45058e-010
v 0.25 1.225 -7.45058e-010
v 0.25 1.225 -0.15
v -0.25 1.225 -0.15
v -0.25 1.275 -7.45058e-010
v 0.25 1.275 -7.45058e-010
v 0.25 1.275 -0.15
v -0.25 1.275 -0.15
v -0.375 0.4 -0.225
v -0.425 0.4 -0.225
v -0.425 0.4 -0.175
v -0.375 0.4 -0.175
v -0.375 2.1 -0.225
v -0.425 2.1 -0.225
v -0.425 2.1 -0.175
v -0.375 2.1 -0.175
v -0.375 2 -0.175
v -0.425 2 -0.175
v -0.425 2 -0.15
v -0.375 2 -0.15
v -0.375 2.05 -0.175
v -0.425 2.05 -0.175
v -0.425 2.05 -0.15
v -0.375 2.05 -0.15
v -0.375 0.45 -0.175
v -0.425 0.45 -0.175
v -0.425 0.45 -0.15
v -0.375 0.45 -0.15
v -0.375 0.5 -0.175
v -0.425 0.5 -0.175
v -0.425 0.5 -0.15
v -0.375 0.5 -0.15
v -0.5 1 -0.175
v -0.5 1.1 -0.175
v -0.6 1.1 -0.175
v -0.6 1 -0.175
v -0.5 1 -0.15
v -0.5 1.1 -0.15
v -0.6 1.1 -0.15
v -0.6 1 -0.15
vt 0.02 0.89
vt 0.025 0.64
vt 0.025 0.795
vt 0.04 0.975
vt 0.225 0.201
vt 0.225 0.226
vt 0.225 0.255
vt 0.225 0.28
vt 0.430374 0.43152
vt 0.438576 0.345572
vn 0 -1 -0
vn 0 -1 -0
vn 0 -1 -0
vn 0 -1 -0
vn 1 0 -0
vn 1 0 -0
vn 1 0 -0
vn 1 0 -0
vn -1 0 -0
vn -1 0 -0
vn -1 0 -0
vn -1 0 -0
vn 0 1 -0
vn 0 1 -0
vn 0 1 -0
vn 0 1 -0
vn -1 0 -0
vn -1 0 -0
vn -1 0 -0
vn -1 0 -0
vn 0 -1 -0
vn 0 -1 -0
vn 0 -1 -0
vn 0 -1 -0
vn 1 0 -0
vn 1 0 -0
vn 1 0 -0
vn 1 0 -0
vn 0 1 0
vn 0 1 0
vn 0 1 0
vn 0 1 0
vn 0 0 1
vn 0 0 1
vn 0 0 1
vn 0 0 1
vn 0 0 -1
vn 0 0 -1
vn 0 0 -1
vn 0 0 -1
vn 0 -1 -0
vn 0 -1 -0
vn 0 -1 -0
vn 0 -1 -0
vn 0 0 1
vn 0 0 1
vn 0 0 1
vn 0 0 1
vn 1 0 -0
vn 1 0 -0
vn 1 0 -0
vn 1 0 -0
vn 0 0 -1
vn 0 0 -1
vn 0 0 -1
vn 0 0 -1
vn -1 0 -0
vn -1 0 -0
vn -1 0 -0
vn -1 0 -0
vn 0 1 -0
vn 0 1 -0
vn 0 1 -0
vn 0 1 -0
vn 0 -1 -0
vn 0 -1 -0
vn 0 -1 -0
vn 0 -1 -0
vn 1 0 -0
vn 1 0 -0
vn 1 0 -0
vn 1 0 -0
vn -1 0 -0
vn -1 0 -0
vn -1 0 -0
vn -1 0 -0
vn 0 1 -0
vn 0 1 -0
vn 0 1 -0
vn 0 1 -0
vn 0 -1 -0
vn 0 -1 -0
vn 0 -1 -0
vn 0 -1 -0
vn 1 0 -0
vn 1 0 -0
vn 1 0 -0
vn 1 0 -0
vn -1 0 -0
vn -1 0 -0
vn -1 0 -0
vn -1 0 -0
vn 0 1 -0
vn 0 1 -0
vn 0 1 -0
vn 0 1 -0
vn 0 0 1
vn 0 0 1
vn 0 0 1
vn 0 0 1
vn -1 0 -0
vn -1 0 -0
vn -1 0 -0
vn -1 0 -0
vn 0 1 -0
vn 0 1 -0
vn 0 1 -0
vn 0 1 -0
vn 1 0 -0
vn 1 0 -0
vn 1 0 -0
vn 1 0 -0
vn 0 -1 -0
vn 0 -1 -0
vn 0 -1 -0
vn 0 -1 -0
vn -3.2333e-008 -3.5945e-009 1
vn -3.2333e-008 -3.5945e-009 1
vn -3.2333e-008 -3.5945e-009 1
vn -3.2333e-008 -3.5945e-009 1
vn 1.22625e-008 1.40366e-007 1
vn 1.22625e-008 1.40366e-007 1
vn 1.22625e-008 1.40366e-007 1
vn 1.22625e-008 1.40366e-007 1
vn 1.51151e-008 -1.86903e-009 1
vn 1.51151e-008 -1.86903e-009 1
vn 1.51151e-008 -1.86903e-009 1
vn 1.51151e-008 -1.86903e-009 1
vn -3.09138e-008 -3.42048e-009 1
vn -3.09138e-008 -3.42048e-009 1
vn -3.09138e-008 -3.42048e-009 1
vn -3.09138e-008 -3.42048e-009 1
vn 1.29234e-008 9.48118e-008 1
vn 1.29234e-008 9.48118e-008 1
vn 1.29234e-008 9.48118e-008 1
vn 1.29234e-008 9.48118e-008 1
vn 1.51568e-008 -1.63514e-009 1
vn 1.51568e-008 -1.63514e-009 1
vn 1.51568e-008 -1.63514e-009 1
vn 1.51568e-008 -1.63514e-009 1
vn -7.63331e-009 -4.12445e-009 1
vn -7.63331e-009 -4.12445e-009 1
vn -7.63331e-009 -4.12445e-009 1
vn -7.63331e-009 -4.12445e-009 1
vn 1.51568e-008 3.77118e-008 1
vn 1.51568e-008 3.77118e-008 1
vn 1.51568e-008 3.77118e-008 1
vn 1.51568e-008 3.77118e-008 1
vn 1.51151e-008 5.56104e-008 1
vn 1.51151e-008 5.56104e-008 1
vn 1.51151e-008 5.56104e-008 1
vn 1.51151e-008 5.56104e-008 1
vn -4.67687e-009 -4.07179e-009 1
vn -4.67687e-009 -4.07179e-009 1
vn -4.67687e-009 -4.07179e-009 1
vn -4.67687e-009 -4.07179e-009 1
vn 1.69771e-007 3.1589e-010 -1
vn 1.69771e-007 3.1589e-010 -1
vn 1.69771e-007 3.1589e-010 -1
vn 1.69771e-007 3.1589e-010 -1
vn -1.32556e-008 1.39591e-008 -1
vn -1.32556e-008 1.39591e-008 -1
vn -1.32556e-008 1.39591e-008 -1
vn -1.32556e-008 1.39591e-008 -1
vn -1.42533e-008 3.96461e-008 -1
vn -1.42533e-008 3.96461e-008 -1
vn -1.42533e-008 3.96461e-008 -1
vn -1.42533e-008 3.96461e-008 -1
vn -0 0 -1
vn -0 0 -1
vn -0 0 -1
vn -0 0 -1
vn -1.33522e-008 1.24099e-007 -1
vn -1.33522e-008 1.24099e-007 -1
vn -1.33522e-008 1.24099e-007 -1
vn -1.33522e-008 1.24099e-007 -1
vn -1.42104e-008 -1.19433e-008 -1
vn -1.42104e-008 -1.19433e-008 -1
vn -1.42104e-008 -1.19433e-008 -1
vn -1.42104e-008 -1.19433e-008 -1
vn 0 0 -1
vn 0 0 -1
vn 0 0 -1
vn 0 0 -1
vn -1.42104e-008 1.09706e-008 -1
vn -1.42104e-008 1.09706e-008 -1
vn -1.42104e-008 1.09706e-008 -1
vn -1.42104e-008 1.09706e-008 -1
vn -1.42533e-008 1.44922e-008 -1
vn -1.42533e-008 1.44922e-008 -1
vn -1.42533e-008 1.44922e-008 -1
vn -1.42533e-008 1.44922e-008 -1
vn -0 -0 -1
vn -0 -0 -1
vn -0 -0 -1
vn -0 -0 -1
vn 0 -1 -0
vn 0 -1 -0
vn 0 -1 -0
vn 0 -1 -0
vn 0 0 1
vn 0 0 1
vn 0 0 1
vn 0 0 1
vn 0 0 -1
vn 0 0 -1
vn 0 0 -1
vn 0 0 -1
vn 0 1 -0
vn 0 1 -0
vn 0 1 -0
vn 0 1 -0
vn 0 -1 -0
vn 0 -1 -0
vn 0 -1 -0
vn 0 -1 -0
vn 0 0 1
vn 0 0 1
vn 0 0 1
vn 0 0 1
vn 0 0 -1
vn 0 0 -1
vn 0 0 -1
vn 0 0 -1
vn 0 1 -0
vn 0 1 -0
vn 0 1 -0
vn 0 1 -0
vn 0 -1 -0
vn 0 -1 -0
vn 0 -1 -0
vn 0 -1 -0
vn 0 0 1
vn 0 0 1
vn 0 0 1
vn 0 0 1
vn 0 0 -1
vn 0 0 -1
vn 0 0 -1
vn 0 0 -1
vn 0 1 -0
vn 0 1 -0
vn 0 1 -0
vn 0 1 -0
vn -5.43722e-008 4.07565e-011 -1
vn -5.43722e-008 4.07565e-011 -1
vn -5.43722e-008 4.07565e-011 -1
vn -5.46379e-008 0 -1
vn -5.46379e-008 0 -1
vn -5.46379e-008 0 -1
vn 0 0 -1
vn 0 0 -1
vn 0 0 -1
vn 0 0 -1
vn 0 0 -1
vn 0 0 -1
vn 3.9865e-008 -4.08885e-009 1
vn 3.9865e-008 -4.08885e-009 1
vn 3.9865e-008 -4.08885e-009 1
vn 1.32112e-008 0 1
vn 1.32112e-008 0 1
vn 1.32112e-008 0 1
vn 4.473e-008 0 1
vn 4.473e-008 0 1
vn 4.473e-008 0 1
vn 1.80762e-008 -4.08885e-009 1
vn 1.80762e-008 -4.08885e-009 1
vn 1.80762e-008 -4.08885e-009 1
vn -0 -1 0
vn -0 -1 0
vn -0 -1 0
vn -0 -1 0
vn 0 -0 -1
vn 0 -0 -1
vn 0 -0 -1
vn 0 -0 -1
vn -1 0 -0
vn -1 0 -0
vn -1 0 -0
vn -1 0 -0
vn 0 0 1
vn 0 0 1
vn 0 0 1
vn 0 0 1
vn 1 -0 -0
vn 1 -0 -0
vn 1 -0 -0
vn 1 -0 -0
vn 0 1 -0
vn 0 1 -0
vn 0 1 -0
vn 0 1 -0
vn -0 -1 0
vn -0 -1 0
vn -0 -1 0
vn -0 -1 0
vn -1 0 -0
vn -1 0 -0
vn -1 0 -0
vn -1 0 -0
vn 1 -0 -0
vn 1 -0 -0
vn 1 -0 -0
vn 1 -0 -0
vn 0 1 -0
vn 0 1 -0
vn 0 1 -0
vn 0 1 -0
vn -0 -1 0
vn -0 -1 0
vn -0 -1 0
vn -0 -1 0
vn -1 0 -0
vn -1 0 -0
vn -1 0 -0
vn -1 0 -0
vn 1 -0 -0
vn 1 -0 -0
vn 1 -0 -0
vn 1 -0 -0
vn 0 1 -0
vn 0 1 -0
vn 0 1 -0
vn 0 1 -0
vn 0 -0 -1
vn 0 -0 -1
vn 0 -0 -1
vn 0 -0 -1
vn 1 -0 -0
vn 1 -0 -0
vn 1 -0 -0
vn 1 -0 -0
vn 0 1 -0
vn 0 1 -0
vn 0 1 -0
vn 0 1 -0
vn -1 0 -0
vn -1 0 -0
vn -1 0 -0
vn -1 0 -0
vn -0 -1 0
vn -0 -1 0
vn -0 -1 0
vn -0 -1 0
g SU_COLOR
usemtl SU_COLOR
s off
f 71/5/1 68/5/2 69/5/3 72/5/4
f 68/5/5 62/7/6 63/7/7 69/5/8
f 66/7/9 65/7/10 71/5/11 72/5/12
f 63/7/13 62/7/14 65/7/15 66/7/16
f 61/7/17 67/7/18 4/7/19 2/7/20
f 64/7/21 61/7/22 2/7/23 1/7/24
f 70/7/25 64/7/26 1/7/27 3/7/28
f 67/7/29 70/7/30 3/7/31 4/7/32
g SU_GLASS
usemtl SU_GLASS
s off
f 6//33 10//34 9//35 5//36
f 12//37 11//38 7//39 8//40
g SU_COLOR
usemtl SU_COLOR
s off
f 16/3/41 15/3/42 14/3/43 13/3/44
f 14/3/45 18/1/46 17/1/47 13/3/48
f 15/3/49 19/1/50 18/1/51 14/3/52
f 20/1/53 19/1/54 15/3/55 16/3/56
f 17/1/57 20/1/58 16/3/59 13/3/60
f 18/1/61 19/1/62 20/1/63 17/1/64
f 24/3/65 23/3/66 22/3/67 21/3/68
f 23/3/69 27/3/70 26/3/71 22/3/72
f 25/3/73 28/3/74 24/3/75 21/3/76
f 26/3/77 27/3/78 28/3/79 25/3/80
f 32/3/81 31/3/82 30/3/83 29/3/84
f 31/3/85 35/3/86 34/3/87 30/3/88
f 33/3/89 36/3/90 32/3/91 29/3/92
f 34/3/93 35/3/94 36/3/95 33/3/96
f 40/3/97 39/4/98 38/3/99 37/3/100
f 38/3/101 42/2/102 41/2/103 37/3/104
f 39/4/105 43/2/106 42/2/107 38/3/108
f 44/2/109 43/2/110 39/4/111 40/3/112
f 41/2/113 44/2/114 40/3/115 37/3/116
f 46/5/117 69/5/118 63/7/119 45/7/120
f 45/7/121 63/7/122 66/7/123 49/7/124
f 50/8/125 1/7/126 2/7/127 48/8/128
f 49/7/129 66/7/130 72/5/131 51/5/132
f 51/5/133 72/5/134 69/5/135 46/5/136
f 47/6/137 4/7/138 3/7/139 52/6/140
f 47/6/141 46/5/142 45/7/143 48/8/144
f 52/6/145 51/5/146 46/5/147 47/6/148
f 48/8/149 45/7/150 49/7/151 50/8/152
f 50/8/153 49/7/154 51/5/155 52/6/156
f 54/5/157 71/5/158 65/7/159 53/7/160
f 53/7/161 65/7/162 62/7/163 57/7/164
f 58/8/165 61/7/166 64/7/167 56/8/168
f 57/7/169 62/7/170 68/5/171 59/5/172
f 59/5/173 68/5/174 71/5/175 54/5/176
f 55/6/177 70/7/178 67/7/179 60/6/180
f 55/6/181 54/5/182 53/7/183 56/8/184
f 60/6/185 59/5/186 54/5/187 55/6/188
f 56/8/189 53/7/190 57/7/191 58/8/192
f 58/8/193 57/7/194 59/5/195 60/6/196
f 76/10/197 75/10/198 74/10/199 73/10/200
f 74/10/201 78/9/202 77/9/203 73/10/204
f 80/9/205 79/9/206 75/10/207 76/10/208
f 78/9/209 79/9/210 80/9/211 77/9/212
f 84/10/213 83/10/214 82/10/215 81/10/216
f 82/10/217 86/9/218 85/9/219 81/10/220
f 88/9/221 87/9/222 83/10/223 84/10/224
f 86/9/225 87/9/226 88/9/227 85/9/228
f 92/10/229 91/10/230 90/10/231 89/10/232
f 90/10/233 94/9/234 93/9/235 89/10/236
f 96/9/237 95/9/238 91/10/239 92/10/240
f 94/9/241 95/9/242 96/9/243 93/9/244
f 56/8/245 70/7/246 55/6/247
f 56/8/248 64/7/249 70/7/250
f 61/7/251 58/8/252 67/7/253
f 67/7/254 58/8/255 60/6/256
f 48/8/257 4/7/258 47/6/259
f 48/8/260 2/7/261 4/7/262
f 1/7/263 50/8/264 3/7/265
f 3/7/266 50/8/267 52/6/268
f 100/3/269 99/3/270 98/3/271 97/3/272
f 98/3/273 102/1/274 101/1/275 97/3/276
f 99/3/277 103/1/278 102/1/279 98/3/280
f 104/1/281 103/1/282 99/3/283 100/3/284
f 101/1/285 104/1/286 100/3/287 97/3/288
f 102/1/289 103/1/290 104/1/291 101/1/292
f 108/3/293 107/3/294 106/3/295 105/3/296
f 107/3/297 111/3/298 110/3/299 106/3/300
f 109/3/301 112/3/302 108/3/303 105/3/304
f 110/3/305 111/3/306 112/3/307 109/3/308
f 116/3/309 115/3/310 114/3/311 113/3/312
f 115/3/313 119/3/314 118/3/315 114/3/316
f 117/3/317 120/3/318 116/3/319 113/3/320
f 118/3/321 119/3/322 120/3/323 117/3/324
f 124/3/325 123/4/326 122/3/327 121/3/328
f 122/3/329 126/2/330 125/2/331 121/3/332
f 123/4/333 127/2/334 126/2/335 122/3/336
f 128/2/337 127/2/338 123/4/339 124/3/340
f 125/2/341 128/2/342 124/3/343 121/3/344
